<svg xmlns="http://www.w3.org/2000/svg" enable-background="new 0 0 128 128" viewBox="0 0 128 128" id="instruction" fill="#000">
<path fill="#fff" d="M64,6.1C32,6.1,6.1,32,6.1,64c0,32,26,57.9,57.9,57.9c32,0,57.9-26,57.9-57.9C121.9,32,96,6.1,64,6.1z
					 M64,110.5c-25.6,0-46.5-20.9-46.5-46.5S38.4,17.5,64,17.5s46.5,20.9,46.5,46.5S89.6,110.5,64,110.5z">
           </path>
           <circle cx="61.5" cy="39.3" r="7.7" fill="#fff"></circle>
           <path fill="#fff" d="M56.4,54c-2.2,0.4-3.8,2.3-3.8,4.5l0,0c0,2.6,2.1,4.6,4.6,4.6h0.5v25.5h-2.5c-2.2,0-3.9,1.8-3.9,3.9v0
						c0,2.2,1.8,3.9,3.9,3.9h17.6c2.2,0,3.9-1.8,3.9-3.9v0c0-2.2-1.8-3.9-3.9-3.9h-2.4V56c0-2.5-2.3-4.4-4.7-3.9
						C61.6,52.9,56.6,53.9,56.4,54z"></path></svg>
