<svg
                width="16"
                height="16"
                viewBox="0 0 16 16"
                fill="none"
                xmlns="http://www.w3.org/2000/svg"
                class="feather"
              > <path
                d="M11.9998 12.6667C11.9998 13.4 11.3998 14 10.6665 14H5.33317C4.59984 14 3.99984 13.4 3.99984 12.6667V6C3.99984 5.26667 4.59984 4.66667 5.33317 4.66667H10.6665C11.3998 4.66667 11.9998 5.26667 11.9998 6V12.6667ZM3.99984 2.66667H5.6665L6.13984 2.19333C6.25984 2.07333 6.43317 2 6.6065 2H9.39317C9.5665 2 9.73984 2.07333 9.85984 2.19333L10.3332 2.66667H11.9998C12.3665 2.66667 12.6665 2.96667 12.6665 3.33333C12.6665 3.7 12.3665 4 11.9998 4H3.99984C3.63317 4 3.33317 3.7 3.33317 3.33333C3.33317 2.96667 3.63317 2.66667 3.99984 2.66667Z"
                fill="#fff"
              /> </svg>
